# xmcd
#
# Track frame offsets: 
#        150
#        30952
#        52440
#        73195
#        93322
#        114460
#        132650
#        154542
#        174277
#        199087
#        216552
#        248310
#
# Disc length: 3640 seconds
#
# Revision: 0
# Processed by: cddbd v1.5.2PL0 Copyright (c) Steve Scherf et al.
# Submitted via: ExactAudioCopy v1.0b3
#
DISCID=a80e360c
DTITLE=Nostradameus - The Third Prophecy
DYEAR=2003
DGENRE=Metal
TTITLE0=Far Too Strong
TTITLE1=Randall Flagg
TTITLE2=Those Things You Did
TTITLE3=The Future Will Show
TTITLE4=If We Believe (In Our Dreams)
TTITLE5=Revenge Is Mine
TTITLE6=1986
TTITLE7=H.M.S. Ulysses
TTITLE8=In Harmony
TTITLE9=Towards The Sleep (Stalingrad)
TTITLE10=One For All, All For One (Live In Stockholm)
TTITLE11=In Harmony (Instrumental Version)
EXTD=
EXTT0=
EXTT1=
EXTT2=
EXTT3=
EXTT4=
EXTT5=
EXTT6=
EXTT7=
EXTT8=
EXTT9=
EXTT10=
EXTT11=
PLAYORDER=
